<svg id="Layer_1" data-name="Layer 1" xmlns="http://www.w3.org/2000/svg" xmlns:xlink="http://www.w3.org/1999/xlink" viewBox="0 0 1000 1000"><defs><style>.cls-1{fill:url(#Sky_2);}.cls-2{clip-path:url(#clip-path);}.cls-3{fill:#231f20;}</style><linearGradient id="Sky_2" x1="297.41" y1="450.65" x2="702.59" y2="450.65" gradientUnits="userSpaceOnUse"><stop offset="0" stop-color="#cce0f4"/><stop offset="0.15" stop-color="#a2d0ee"/><stop offset="0.37" stop-color="#69bbe6"/><stop offset="0.57" stop-color="#3ca9e0"/><stop offset="0.75" stop-color="#1b9ddc"/><stop offset="0.9" stop-color="#0796d9"/><stop offset="1" stop-color="#0093d8"/></linearGradient><clipPath id="clip-path"><circle class="cls-1" cx="500" cy="450.65" r="202.59"/></clipPath></defs><title>HomeSchoolLogo3</title><circle class="cls-1" cx="500" cy="450.65" r="202.59"/><g class="cls-2"><path class="cls-3" d="M568,624.09q-35.7,0-57.57-6.28t-37-14.83l7-19.6a211,211,0,0,0,37.71,14.33q20.6,5.79,49.77,5.78a134.65,134.65,0,0,0,34.69-4.27,75.51,75.51,0,0,0,27.4-13.07A61.89,61.89,0,0,0,648,563.76q6.52-13.57,6.53-32.68,0-19.6-7-31.67a58.57,58.57,0,0,0-19.11-19.85,117,117,0,0,0-27.65-12.82q-15.59-5-32.18-10.56-17.1-5.53-34.19-12.82a131.51,131.51,0,0,1-30.67-18.1,85.65,85.65,0,0,1-22.12-26.65q-8.55-15.83-8.55-38a94.85,94.85,0,0,1,5.53-32.43,66.21,66.21,0,0,1,17.85-26.65q12.31-11.31,31.67-17.85t46.5-6.53q26.13,0,47.51,6T658,296.81L651.5,314.4a163.84,163.84,0,0,0-36.2-12.06,187.4,187.4,0,0,0-40.22-4.52q-42.23,0-60.83,17.59t-18.6,46.76q0,16.59,5.78,27.9a58.76,58.76,0,0,0,16.34,19.6,112.53,112.53,0,0,0,25.13,14.58q14.58,6.29,32.68,12.31,19.61,6.54,38,13.58A138.88,138.88,0,0,1,646,467.49a80.22,80.22,0,0,1,22.62,25.39q8.55,15.08,8.55,38.21,0,22.63-7.8,40a79.33,79.33,0,0,1-22.12,29.16Q632.89,612,612.79,618.06T568,624.09Z"/><path class="cls-3" d="M457,456H332.72V600.3H317.26V301h15.46V436.88H457V253.33l15.46-5.27V653.23H457V456Z"/><path class="cls-3" d="M904.68,959q-35.7,0-57.57-6.28t-37-14.83l7-19.6a211,211,0,0,0,37.71,14.33q20.6,5.79,49.77,5.78a134.65,134.65,0,0,0,34.69-4.27,75.51,75.51,0,0,0,27.4-13.07,61.89,61.89,0,0,0,17.85-22.37q6.52-13.57,6.53-32.68,0-19.6-7-31.67A58.57,58.57,0,0,0,965,814.49a117,117,0,0,0-27.65-12.82q-15.59-5-32.18-10.56-17.1-5.53-34.19-12.82a131.51,131.51,0,0,1-30.67-18.1,85.65,85.65,0,0,1-22.12-26.65q-8.55-15.83-8.55-38a94.85,94.85,0,0,1,5.53-32.43A66.21,66.21,0,0,1,833,636.52q12.31-11.31,31.67-17.85t46.5-6.53q26.13,0,47.51,6t35.95,13.58l-6.53,17.59a163.84,163.84,0,0,0-36.2-12.06,187.4,187.4,0,0,0-40.22-4.52q-42.23,0-60.83,17.59t-18.6,46.76q0,16.59,5.78,27.9a58.76,58.76,0,0,0,16.34,19.6,112.53,112.53,0,0,0,25.13,14.58q14.58,6.29,32.68,12.31,19.61,6.54,38,13.58a138.88,138.88,0,0,1,32.43,17.34,80.22,80.22,0,0,1,22.62,25.39q8.55,15.08,8.55,38.21,0,22.63-7.8,40a79.33,79.33,0,0,1-22.12,29.16Q969.53,947,949.43,953T904.68,959Z"/><path class="cls-3" d="M793.65,790.91H669.36V935.23H653.9V635.93h15.46V771.81H793.65V588.27L809.11,583V988.17H793.65V790.91Z"/></g></svg>